<svg xmlns="http://www.w3.org/2000/svg" width="155.522" height="36.192" viewBox="0 0 155.522 36.192">
  <g id="Group_2732" data-name="Group 2732" transform="translate(-13991.011 -9653.291)">
    <path id="Path_18312" data-name="Path 18312" d="M24.8-18.248h-4.62v2.532a10.562,10.562,0,0,0-8-3.154A10.435,10.435,0,0,0,4.5-15.582,11.4,11.4,0,0,0,1.258-7.23,11.422,11.422,0,0,0,4.479,1.145,10.447,10.447,0,0,0,12.187,4.41a10.562,10.562,0,0,0,8-3.154V3.788H24.8ZM12.942.323A6.947,6.947,0,0,1,7.789-1.743,7.461,7.461,0,0,1,5.745-7.23a7.461,7.461,0,0,1,2.044-5.487,6.947,6.947,0,0,1,5.154-2.066,7.053,7.053,0,0,1,5.065,2.11A7.246,7.246,0,0,1,20.184-7.23a7.246,7.246,0,0,1-2.177,5.442A7.053,7.053,0,0,1,12.942.323ZM60.48-18.248h-4.62L50.839-2.921l-5.2-15.327H42L36.8-2.921,31.78-18.248h-4.62L34.534,3.877h4.221l5.065-14.839L48.884,3.877H53.1Zm23.724,0h-4.62v2.532a10.562,10.562,0,0,0-8-3.154A10.435,10.435,0,0,0,63.9-15.582,11.4,11.4,0,0,0,60.657-7.23a11.422,11.422,0,0,0,3.221,8.375A10.447,10.447,0,0,0,71.587,4.41a10.562,10.562,0,0,0,8-3.154V3.788H84.2ZM72.342.323a6.947,6.947,0,0,1-5.154-2.066A7.461,7.461,0,0,1,65.145-7.23a7.461,7.461,0,0,1,2.044-5.487,6.947,6.947,0,0,1,5.154-2.066,7.053,7.053,0,0,1,5.065,2.11A7.246,7.246,0,0,1,79.583-7.23a7.246,7.246,0,0,1-2.177,5.442A7.053,7.053,0,0,1,72.342.323Zm38.474-18.615h-5.154L98.6-2.387,91.712-18.292H86.559L96.066,3.255l-3.6,8.086h5.154Z" transform="translate(14035.717 9678.143)" fill="#243657"/>
    <g id="Group_2724" data-name="Group 2724" transform="translate(13991.011 9653.291)">
      <g id="Group_2710" data-name="Group 2710" transform="translate(0 0)">
        <g id="Group_2709" data-name="Group 2709" transform="translate(0)">
          <path id="Path_15690" data-name="Path 15690" d="M265.979,277.157v17.781l-15.687-13.83Z" transform="translate(-230.416 -259.375)" fill="#0298cd"/>
          <path id="Path_15691" data-name="Path 15691" d="M203.993,213.877a17.779,17.779,0,0,0-25.753,23.442c8.186-12.221,20.4-20.292,25.753-23.442" transform="translate(-175.756 -210.475)" fill="#0fc9f4"/>
          <path id="Path_15692" data-name="Path 15692" d="M236.286,230.413a58.723,58.723,0,0,0-19.523,28.878,17.781,17.781,0,0,0,19.523-28.878" transform="translate(-205.828 -225.096)" fill="#0fc9f4"/>
        </g>
      </g>
    </g>
  </g>
</svg>
