<svg xmlns="http://www.w3.org/2000/svg" width="77" height="96" viewBox="0 0 77 96">
  <g id="Group_414" data-name="Group 414" transform="translate(0 -0.12)">
    <path id="Path_15747" data-name="Path 15747" d="M38.5,0A38.5,38.5,0,1,1,0,38.5,38.5,38.5,0,0,1,38.5,0Z" transform="translate(0 9.131)" fill="#0298cd"/>
    <g id="Group_1144" data-name="Group 1144" transform="translate(14 0)">
      <g id="Rectangle_849" data-name="Rectangle 849" transform="translate(0 0.119)" fill="none" stroke="#2d2f3b" stroke-width="5">
        <rect width="51" height="96" rx="9" stroke="none"/>
        <rect x="2.5" y="2.5" width="46" height="91" rx="6.5" fill="none"/>
      </g>
      <path id="Rectangle_850" data-name="Rectangle 850" d="M0,0H20a0,0,0,0,1,0,0V0a6,6,0,0,1-6,6H6A6,6,0,0,1,0,0V0A0,0,0,0,1,0,0Z" transform="translate(16 4.119)" fill="#2d2f3b"/>
    </g>
  </g>
</svg>
