<svg xmlns="http://www.w3.org/2000/svg" width="93.649" height="89.333" viewBox="0 0 93.649 89.333">
  <g id="Group_1148" data-name="Group 1148" transform="translate(0.001)">
    <g id="Group_413" data-name="Group 413" transform="translate(8 9.903)">
      <circle id="Ellipse_28" data-name="Ellipse 28" cx="38.5" cy="38.5" r="38.5" transform="translate(0 0.12)" fill="#0298cd"/>
    </g>
    <g id="Group_1147" data-name="Group 1147" transform="translate(-0.001)">
      <path id="Path_15751" data-name="Path 15751" d="M34.974,6V29.016h6.361V6ZM5.406,31.872,24.464,38l3.019.985,1.975-6-3.031-.985L7.369,25.876ZM29.595,45.416l-1.864,2.549L15.941,64.033,21.1,67.739,32.874,51.671l1.864-2.561Zm17.119,0L41.571,49.11l1.864,2.561L55.212,67.739l5.156-3.706L48.578,47.965Zm22.225-19.54L49.882,32.008l-3.031.985,1.975,6L51.845,38,70.9,31.872Z" transform="translate(8.67 9.258)" fill="#2d2f3b"/>
      <path id="Path_15752" data-name="Path 15752" d="M20.389,6a14.985,14.985,0,1,0,14.99,14.979A15.027,15.027,0,0,0,20.389,6Zm0,5.762a9.223,9.223,0,1,1-9.228,9.217A9.178,9.178,0,0,1,20.389,11.764Z" transform="translate(26.436 27.536)" fill="#2d2f3b"/>
      <path id="Path_15753" data-name="Path 15753" d="M47.283.75a9.643,9.643,0,0,0-9.628,9.556,9.629,9.629,0,0,0,19.256,0A9.643,9.643,0,0,0,47.283.75Zm0,6.162a3.388,3.388,0,1,1-3.42,3.394A3.364,3.364,0,0,1,47.283,6.912ZM13.039,28.046A9.688,9.688,0,0,0,.925,34.183,9.58,9.58,0,0,0,7.1,46.219a9.7,9.7,0,0,0,12.138-6.138,9.591,9.591,0,0,0-6.184-12.035Zm-1.916,5.861h.012a3.345,3.345,0,0,1,2.195,4.272,3.393,3.393,0,0,1-4.317,2.178,3.394,3.394,0,1,1,2.11-6.451ZM22.776,71.131a9.522,9.522,0,0,0-4.147,17.15,9.733,9.733,0,0,0,13.448-2.118,9.554,9.554,0,0,0-9.3-15.032ZM26.292,77.8a3.341,3.341,0,0,1,.752,4.742,3.4,3.4,0,0,1-4.766.746,3.348,3.348,0,0,1-.764-4.73A3.4,3.4,0,0,1,26.292,77.8Zm45.5-6.667a9.522,9.522,0,1,0,6.281,3.8A9.653,9.653,0,0,0,71.79,71.131ZM68.273,77.8a3.4,3.4,0,0,1,4.778.758,3.348,3.348,0,0,1-.764,4.73,3.4,3.4,0,0,1-4.766-.746A3.341,3.341,0,0,1,68.273,77.8ZM81.515,28.046A9.591,9.591,0,0,0,75.33,40.081a9.7,9.7,0,0,0,12.138,6.138,9.58,9.58,0,0,0,6.172-12.035,9.688,9.688,0,0,0-12.114-6.138Zm1.916,5.861h.012a2.7,2.7,0,1,1-.012,0Z" transform="translate(-0.458 -0.75)" fill="#2d2f3b"/>
    </g>
  </g>
</svg>
